<?xml version="1.0" encoding="UTF-8" standalone="no"?>
<!-- Created with Inkscape (http://www.inkscape.org/) -->

<svg
   xmlns:dc="http://purl.org/dc/elements/1.1/"
   xmlns:cc="http://creativecommons.org/ns#"
   xmlns:rdf="http://www.w3.org/1999/02/22-rdf-syntax-ns#"
   xmlns:svg="http://www.w3.org/2000/svg"
   xmlns="http://www.w3.org/2000/svg"
   xmlns:sodipodi="http://sodipodi.sourceforge.net/DTD/sodipodi-0.dtd"
   xmlns:inkscape="http://www.inkscape.org/namespaces/inkscape"
   width="800"
   height="800"
   viewBox="0 0 800.00001 800.00001"
   id="svg2"
   version="1.1"
   inkscape:version="0.91 r13725"
   sodipodi:docname="icons.svg"
   inkscape:export-filename="/Users/walvarezrodrigu/proyectos/games/SimpleHTTP/SVG/icon-128x128.png"
   inkscape:export-xdpi="14.4"
   inkscape:export-ydpi="14.4">
  <defs
     id="defs4" />
  <sodipodi:namedview
     id="base"
     pagecolor="#ffffff"
     bordercolor="#666666"
     borderopacity="1.0"
     inkscape:pageopacity="0.0"
     inkscape:pageshadow="2"
     inkscape:zoom="0.35"
     inkscape:cx="472.00946"
     inkscape:cy="-1567.8119"
     inkscape:document-units="px"
     inkscape:current-layer="layer2"
     showgrid="false"
     units="px"
     inkscape:window-width="1440"
     inkscape:window-height="851"
     inkscape:window-x="0"
     inkscape:window-y="1"
     inkscape:window-maximized="1"
     showguides="true"
     inkscape:guide-bbox="true" />
  <metadata
     id="metadata7">
    <rdf:RDF>
      <cc:Work
         rdf:about="">
        <dc:format>image/svg+xml</dc:format>
        <dc:type
           rdf:resource="http://purl.org/dc/dcmitype/StillImage" />
        <dc:title></dc:title>
      </cc:Work>
    </rdf:RDF>
  </metadata>
  <g
     inkscape:groupmode="layer"
     id="layer2"
     inkscape:label="Frames"
     style="display:inline;opacity:0">
    <rect
       style="opacity:1;fill:#d400a5;fill-opacity:1;stroke:none;stroke-width:20;stroke-linecap:butt;stroke-linejoin:round;stroke-miterlimit:4;stroke-dasharray:none;stroke-dashoffset:0;stroke-opacity:1"
       id="rect4501"
       width="516"
       height="389"
       x="160"
       y="1152.4285"
       inkscape:export-xdpi="90"
       inkscape:export-ydpi="90" />
    <rect
       inkscape:export-ydpi="90"
       inkscape:export-xdpi="90"
       y="878.85693"
       x="311.42856"
       height="124"
       width="200"
       id="rect4640"
       style="opacity:1;fill:#d400a5;fill-opacity:1;stroke:none;stroke-width:20;stroke-linecap:butt;stroke-linejoin:round;stroke-miterlimit:4;stroke-dasharray:none;stroke-dashoffset:0;stroke-opacity:1" />
    <rect
       inkscape:export-ydpi="90"
       inkscape:export-xdpi="90"
       y="1699.9999"
       x="-165.71429"
       height="630"
       width="1200"
       id="rect4642"
       style="opacity:1;fill:#d400a5;fill-opacity:1;stroke:none;stroke-width:20;stroke-linecap:butt;stroke-linejoin:round;stroke-miterlimit:4;stroke-dasharray:none;stroke-dashoffset:0;stroke-opacity:1" />
    <rect
       style="opacity:1;fill:#b752d4;fill-opacity:1;stroke:none;stroke-width:20;stroke-linecap:butt;stroke-linejoin:round;stroke-miterlimit:4;stroke-dasharray:none;stroke-dashoffset:0;stroke-opacity:1"
       id="rect5069"
       width="860"
       height="389"
       x="-88.571396"
       y="2602.4285"
       ry="0"
       inkscape:export-xdpi="90"
       inkscape:export-ydpi="90" />
  </g>
  <g
     inkscape:label="Layer 1"
     inkscape:groupmode="layer"
     id="layer1"
     transform="translate(0,-252.36216)">
    <text
       xml:space="preserve"
       style="font-style:normal;font-weight:500;font-size:40px;line-height:125%;font-family:Haettenschweiler;letter-spacing:0px;word-spacing:0px;fill:#000000;fill-opacity:1;stroke:none;stroke-width:1px;stroke-linecap:butt;stroke-linejoin:miter;stroke-opacity:1;-inkscape-font-specification:'Haettenschweiler Medium';font-stretch:normal;font-variant:normal;"
       x="307.14285"
       y="943.79077"
       id="text4161"
       sodipodi:linespacing="125%"><tspan
         sodipodi:role="line"
         id="tspan4163"
         x="307.14285"
         y="943.79077" /></text>
    <g
       id="g4693"
       transform="translate(0,-60.713922)">
      <rect
         ry="17.084517"
         y="817.77405"
         x="39.285706"
         height="214.3024"
         width="721.42859"
         id="rect4155"
         style="opacity:1;fill:#00aad4;fill-opacity:1;stroke:none;stroke-width:40;stroke-linecap:butt;stroke-linejoin:round;stroke-miterlimit:4;stroke-dasharray:none;stroke-dashoffset:0;stroke-opacity:0" />
      <text
         sodipodi:linespacing="276%"
         id="text4157"
         y="982.48694"
         x="70.494629"
         style="font-style:normal;font-variant:normal;font-weight:normal;font-stretch:normal;font-size:73.24674988px;line-height:275.99999905%;font-family:Mshtakan;-inkscape-font-specification:Mshtakan;letter-spacing:0px;word-spacing:0px;opacity:1;fill:#ffffff;fill-opacity:1;stroke:none;stroke-width:1px;stroke-linecap:butt;stroke-linejoin:miter;stroke-opacity:1"
         xml:space="preserve"><tspan
           style="font-style:normal;font-variant:normal;font-weight:500;font-stretch:normal;font-size:183.11688232px;line-height:125%;font-family:Haettenschweiler;-inkscape-font-specification:'Haettenschweiler Medium';letter-spacing:3px;fill:#ffffff"
           y="982.48694"
           x="70.494629"
           id="tspan4159"
           sodipodi:role="line">SimpleHTTP</tspan></text>
    </g>
    <g
       id="g4598"
       transform="translate(0,-12.713922)">
      <path
         inkscape:export-ydpi="25.65"
         inkscape:export-xdpi="25.65"
         inkscape:connector-curvature="0"
         id="rect4165"
         d="m 429.23529,356.12208 a 166.22226,166.37921 0 0 0 -87.03361,22.24367 166.22226,166.37921 0 0 0 -75.45341,94.85884 88.371329,88.454774 0 0 0 -11.93006,-8.35589 88.371329,88.454774 0 0 0 -88.37207,0 88.371329,88.454774 0 0 0 -42.78148,61.39254 c -37.721682,13.7173 -64.52614,49.83346 -64.52614,92.44613 l 0,18.11459 c 0,54.48661 43.82469,98.35267 98.25988,98.35267 l 485.2032,0 c 54.43519,0 98.25988,-43.86606 98.25988,-98.35267 l 0,-15.59398 0,-2.52061 c 0,-6.63643 -0.65556,-13.11369 -1.89579,-19.3749 A 139.92128,140.0534 0 0 0 670.90018,499.93939 139.92128,140.0534 0 0 0 586.35429,482.08133 166.22226,166.37921 0 0 0 508.42334,378.36575 166.22226,166.37921 0 0 0 429.23529,356.12208 Z"
         style="opacity:1;fill:none;fill-opacity:1;stroke:#00aad4;stroke-width:20;stroke-linecap:butt;stroke-linejoin:round;stroke-miterlimit:4;stroke-dasharray:none;stroke-dashoffset:0;stroke-opacity:1" />
      <g
         inkscape:export-ydpi="25.65"
         inkscape:export-xdpi="25.65"
         transform="translate(1.822784,-23.962976)"
         style="opacity:1;fill:#00aad4;fill-opacity:1"
         id="g4272">
        <g
           transform="matrix(1.2184363,0,0,1.2184363,-1372.5979,-368.74511)"
           id="g4490">
          <g
             id="g4682">
            <path
               transform="translate(0,252.36216)"
               id="path4186"
               d="m 1462.7012,472.71094 a 64.649765,64.649765 0 0 0 -64.6504,64.65039 64.649765,64.649765 0 0 0 64.6504,64.64844 64.649765,64.649765 0 0 0 64.6504,-64.64844 64.649765,64.649765 0 0 0 -64.6504,-64.65039 z m 0,30.71484 a 33.935478,33.935479 0 0 1 33.9355,33.93555 33.935478,33.935479 0 0 1 -33.9355,33.93359 33.935478,33.935479 0 0 1 -33.9356,-33.93359 33.935478,33.935479 0 0 1 33.9356,-33.93555 z"
               style="opacity:1;fill:#00aad4;fill-opacity:1;stroke:#00aad4;stroke-width:16.41448212;stroke-linecap:butt;stroke-linejoin:round;stroke-miterlimit:4;stroke-dasharray:none;stroke-dashoffset:0;stroke-opacity:1"
               inkscape:connector-curvature="0" />
            <rect
               inkscape:transform-center-y="96.974646"
               ry="8.2609568"
               y="852.72321"
               x="1442.4866"
               height="33.576794"
               width="40.429195"
               id="rect4652"
               style="opacity:1;fill:#00aad4;fill-opacity:1;stroke:none;stroke-width:16.41448212;stroke-linecap:butt;stroke-linejoin:round;stroke-miterlimit:4;stroke-dasharray:none;stroke-dashoffset:0;stroke-opacity:1" />
            <rect
               inkscape:transform-center-x="-96.974645"
               transform="matrix(0,-1,1,0,0,0)"
               style="opacity:1;fill:#00aad4;fill-opacity:1;stroke:none;stroke-width:16.41448212;stroke-linecap:butt;stroke-linejoin:round;stroke-miterlimit:4;stroke-dasharray:none;stroke-dashoffset:0;stroke-opacity:1"
               id="rect4668"
               width="40.429195"
               height="33.576794"
               x="-810.13678"
               y="1525.5022"
               ry="8.2609568" />
            <rect
               inkscape:transform-center-y="-96.974645"
               ry="8.2609568"
               y="-727.12115"
               x="-1482.9158"
               height="33.576794"
               width="40.429195"
               id="rect4670"
               style="opacity:1;fill:#00aad4;fill-opacity:1;stroke:none;stroke-width:16.41448212;stroke-linecap:butt;stroke-linejoin:round;stroke-miterlimit:4;stroke-dasharray:none;stroke-dashoffset:0;stroke-opacity:1"
               transform="scale(-1,-1)" />
            <rect
               inkscape:transform-center-x="96.974645"
               transform="matrix(0,1,-1,0,0,0)"
               style="opacity:1;fill:#00aad4;fill-opacity:1;stroke:none;stroke-width:16.41448212;stroke-linecap:butt;stroke-linejoin:round;stroke-miterlimit:4;stroke-dasharray:none;stroke-dashoffset:0;stroke-opacity:1"
               id="rect4672"
               width="40.429195"
               height="33.576794"
               x="769.70758"
               y="-1399.9001"
               ry="8.2609568" />
            <rect
               inkscape:transform-center-y="68.571393"
               ry="8.2609568"
               y="-412.92557"
               x="1572.6306"
               height="33.576794"
               width="40.429195"
               id="rect4674"
               style="opacity:1;fill:#00aad4;fill-opacity:1;stroke:none;stroke-width:16.41448212;stroke-linecap:butt;stroke-linejoin:round;stroke-miterlimit:4;stroke-dasharray:none;stroke-dashoffset:0;stroke-opacity:1"
               transform="matrix(0.70710678,0.70710678,-0.70710678,0.70710678,0,0)"
               inkscape:transform-center-x="68.571458" />
            <rect
               inkscape:transform-center-x="-68.57137"
               transform="matrix(0.70710678,-0.70710678,0.70710678,0.70710678,0,0)"
               style="opacity:1;fill:#00aad4;fill-opacity:1;stroke:none;stroke-width:16.41448212;stroke-linecap:butt;stroke-linejoin:round;stroke-miterlimit:4;stroke-dasharray:none;stroke-dashoffset:0;stroke-opacity:1"
               id="rect4676"
               width="40.429195"
               height="33.576794"
               x="455.51196"
               y="1655.6462"
               ry="8.2609568"
               inkscape:transform-center-y="68.571423" />
            <rect
               inkscape:transform-center-y="-68.571326"
               ry="8.2609568"
               y="538.52759"
               x="-1613.0599"
               height="33.576794"
               width="40.429195"
               id="rect4678"
               style="opacity:1;fill:#00aad4;fill-opacity:1;stroke:none;stroke-width:16.41448212;stroke-linecap:butt;stroke-linejoin:round;stroke-miterlimit:4;stroke-dasharray:none;stroke-dashoffset:0;stroke-opacity:1"
               transform="matrix(-0.70710678,-0.70710678,0.70710678,-0.70710678,0,0)"
               inkscape:transform-center-x="-68.571478" />
            <rect
               inkscape:transform-center-x="68.571271"
               transform="matrix(-0.70710678,0.70710678,-0.70710678,-0.70710678,0,0)"
               style="opacity:1;fill:#00aad4;fill-opacity:1;stroke:none;stroke-width:16.41448212;stroke-linecap:butt;stroke-linejoin:round;stroke-miterlimit:4;stroke-dasharray:none;stroke-dashoffset:0;stroke-opacity:1"
               id="rect4680"
               width="40.429195"
               height="33.576794"
               x="-495.94128"
               y="-1530.0443"
               ry="8.2609568"
               inkscape:transform-center-y="-68.571434" />
          </g>
        </g>
      </g>
    </g>
    <g
       transform="matrix(0.58046887,0,0,0.58046887,185.81246,1173.2688)"
       id="g4830"
       inkscape:export-xdpi="90"
       inkscape:export-ydpi="90">
      <rect
         style="opacity:1;fill:#00aad4;fill-opacity:1;stroke:none;stroke-width:40;stroke-linecap:butt;stroke-linejoin:round;stroke-miterlimit:4;stroke-dasharray:none;stroke-dashoffset:0;stroke-opacity:0"
         id="rect4832"
         width="721.42859"
         height="214.3024"
         x="39.285706"
         y="817.77405"
         ry="17.084517" />
      <text
         xml:space="preserve"
         style="font-style:normal;font-variant:normal;font-weight:normal;font-stretch:normal;font-size:73.24674988px;line-height:275.99999905%;font-family:Mshtakan;-inkscape-font-specification:Mshtakan;letter-spacing:0px;word-spacing:0px;opacity:1;fill:#ffffff;fill-opacity:1;stroke:none;stroke-width:1px;stroke-linecap:butt;stroke-linejoin:miter;stroke-opacity:1"
         x="70.494629"
         y="982.48694"
         id="text4834"
         sodipodi:linespacing="276%"><tspan
           sodipodi:role="line"
           id="tspan4836"
           x="70.494629"
           y="982.48694"
           style="font-style:normal;font-variant:normal;font-weight:500;font-stretch:normal;font-size:183.11688232px;line-height:125%;font-family:Haettenschweiler;-inkscape-font-specification:'Haettenschweiler Medium';letter-spacing:3px;fill:#ffffff">SimpleHTTP</tspan></text>
    </g>
    <g
       id="g4933"
       transform="matrix(0.26645835,0,0,0.26645835,304.84522,1047.8327)"
       inkscape:export-xdpi="90"
       inkscape:export-ydpi="90">
      <path
         inkscape:export-ydpi="25.65"
         inkscape:export-xdpi="25.65"
         inkscape:connector-curvature="0"
         id="path4935"
         d="m 429.23529,356.12208 a 166.22226,166.37921 0 0 0 -87.03361,22.24367 166.22226,166.37921 0 0 0 -75.45341,94.85884 88.371329,88.454774 0 0 0 -11.93006,-8.35589 88.371329,88.454774 0 0 0 -88.37207,0 88.371329,88.454774 0 0 0 -42.78148,61.39254 c -37.721682,13.7173 -64.52614,49.83346 -64.52614,92.44613 l 0,18.11459 c 0,54.48661 43.82469,98.35267 98.25988,98.35267 l 485.2032,0 c 54.43519,0 98.25988,-43.86606 98.25988,-98.35267 l 0,-15.59398 0,-2.52061 c 0,-6.63643 -0.65556,-13.11369 -1.89579,-19.3749 A 139.92128,140.0534 0 0 0 670.90018,499.93939 139.92128,140.0534 0 0 0 586.35429,482.08133 166.22226,166.37921 0 0 0 508.42334,378.36575 166.22226,166.37921 0 0 0 429.23529,356.12208 Z"
         style="opacity:1;fill:none;fill-opacity:1;stroke:#00aad4;stroke-width:34.45490646;stroke-linecap:butt;stroke-linejoin:round;stroke-miterlimit:4;stroke-dasharray:none;stroke-dashoffset:0;stroke-opacity:1" />
      <g
         inkscape:export-ydpi="25.65"
         inkscape:export-xdpi="25.65"
         transform="translate(1.822784,-23.962976)"
         style="opacity:1;fill:#00aad4;fill-opacity:1"
         id="g4937">
        <g
           transform="matrix(1.2184363,0,0,1.2184363,-1372.5979,-368.74511)"
           id="g4939">
          <g
             id="g4941">
            <path
               transform="translate(0,252.36216)"
               id="path4943"
               d="m 1462.7012,472.71094 a 64.649765,64.649765 0 0 0 -64.6504,64.65039 64.649765,64.649765 0 0 0 64.6504,64.64844 64.649765,64.649765 0 0 0 64.6504,-64.64844 64.649765,64.649765 0 0 0 -64.6504,-64.65039 z m 0,30.71484 a 33.935478,33.935479 0 0 1 33.9355,33.93555 33.935478,33.935479 0 0 1 -33.9355,33.93359 33.935478,33.935479 0 0 1 -33.9356,-33.93359 33.935478,33.935479 0 0 1 33.9356,-33.93555 z"
               style="opacity:1;fill:#00aad4;fill-opacity:1;stroke:#00aad4;stroke-width:28.27797318;stroke-linecap:butt;stroke-linejoin:round;stroke-miterlimit:4;stroke-dasharray:none;stroke-dashoffset:0;stroke-opacity:1"
               inkscape:connector-curvature="0" />
            <rect
               inkscape:transform-center-y="96.974646"
               ry="8.2609568"
               y="852.72321"
               x="1442.4866"
               height="33.576794"
               width="40.429195"
               id="rect4945"
               style="opacity:1;fill:#00aad4;fill-opacity:1;stroke:none;stroke-width:16.41448212;stroke-linecap:butt;stroke-linejoin:round;stroke-miterlimit:4;stroke-dasharray:none;stroke-dashoffset:0;stroke-opacity:1" />
            <rect
               inkscape:transform-center-x="-96.974645"
               transform="matrix(0,-1,1,0,0,0)"
               style="opacity:1;fill:#00aad4;fill-opacity:1;stroke:none;stroke-width:16.41448212;stroke-linecap:butt;stroke-linejoin:round;stroke-miterlimit:4;stroke-dasharray:none;stroke-dashoffset:0;stroke-opacity:1"
               id="rect4947"
               width="40.429195"
               height="33.576794"
               x="-810.13678"
               y="1525.5022"
               ry="8.2609568" />
            <rect
               inkscape:transform-center-y="-96.974645"
               ry="8.2609568"
               y="-727.12115"
               x="-1482.9158"
               height="33.576794"
               width="40.429195"
               id="rect4949"
               style="opacity:1;fill:#00aad4;fill-opacity:1;stroke:none;stroke-width:16.41448212;stroke-linecap:butt;stroke-linejoin:round;stroke-miterlimit:4;stroke-dasharray:none;stroke-dashoffset:0;stroke-opacity:1"
               transform="scale(-1,-1)" />
            <rect
               inkscape:transform-center-x="96.974645"
               transform="matrix(0,1,-1,0,0,0)"
               style="opacity:1;fill:#00aad4;fill-opacity:1;stroke:none;stroke-width:16.41448212;stroke-linecap:butt;stroke-linejoin:round;stroke-miterlimit:4;stroke-dasharray:none;stroke-dashoffset:0;stroke-opacity:1"
               id="rect4951"
               width="40.429195"
               height="33.576794"
               x="769.70758"
               y="-1399.9001"
               ry="8.2609568" />
            <rect
               inkscape:transform-center-y="68.571393"
               ry="8.2609568"
               y="-412.92557"
               x="1572.6306"
               height="33.576794"
               width="40.429195"
               id="rect4953"
               style="opacity:1;fill:#00aad4;fill-opacity:1;stroke:none;stroke-width:16.41448212;stroke-linecap:butt;stroke-linejoin:round;stroke-miterlimit:4;stroke-dasharray:none;stroke-dashoffset:0;stroke-opacity:1"
               transform="matrix(0.70710678,0.70710678,-0.70710678,0.70710678,0,0)"
               inkscape:transform-center-x="68.571458" />
            <rect
               inkscape:transform-center-x="-68.57137"
               transform="matrix(0.70710678,-0.70710678,0.70710678,0.70710678,0,0)"
               style="opacity:1;fill:#00aad4;fill-opacity:1;stroke:none;stroke-width:16.41448212;stroke-linecap:butt;stroke-linejoin:round;stroke-miterlimit:4;stroke-dasharray:none;stroke-dashoffset:0;stroke-opacity:1"
               id="rect4955"
               width="40.429195"
               height="33.576794"
               x="455.51196"
               y="1655.6462"
               ry="8.2609568"
               inkscape:transform-center-y="68.571423" />
            <rect
               inkscape:transform-center-y="-68.571326"
               ry="8.2609568"
               y="538.52759"
               x="-1613.0599"
               height="33.576794"
               width="40.429195"
               id="rect4957"
               style="opacity:1;fill:#00aad4;fill-opacity:1;stroke:none;stroke-width:16.41448212;stroke-linecap:butt;stroke-linejoin:round;stroke-miterlimit:4;stroke-dasharray:none;stroke-dashoffset:0;stroke-opacity:1"
               transform="matrix(-0.70710678,-0.70710678,0.70710678,-0.70710678,0,0)"
               inkscape:transform-center-x="-68.571478" />
            <rect
               inkscape:transform-center-x="68.571271"
               transform="matrix(-0.70710678,0.70710678,-0.70710678,-0.70710678,0,0)"
               style="opacity:1;fill:#00aad4;fill-opacity:1;stroke:none;stroke-width:16.41448212;stroke-linecap:butt;stroke-linejoin:round;stroke-miterlimit:4;stroke-dasharray:none;stroke-dashoffset:0;stroke-opacity:1"
               id="rect4959"
               width="40.429195"
               height="33.576794"
               x="-495.94128"
               y="-1530.0443"
               ry="8.2609568"
               inkscape:transform-center-y="-68.571434" />
          </g>
        </g>
      </g>
    </g>
    <g
       transform="matrix(0.52392754,0,0,0.52392754,208.42899,1244.9004)"
       id="g4961"
       inkscape:export-xdpi="90"
       inkscape:export-ydpi="90">
      <path
         style="opacity:1;fill:none;fill-opacity:1;stroke:#00aad4;stroke-width:20;stroke-linecap:butt;stroke-linejoin:round;stroke-miterlimit:4;stroke-dasharray:none;stroke-dashoffset:0;stroke-opacity:1"
         d="m 429.23529,356.12208 a 166.22226,166.37921 0 0 0 -87.03361,22.24367 166.22226,166.37921 0 0 0 -75.45341,94.85884 88.371329,88.454774 0 0 0 -11.93006,-8.35589 88.371329,88.454774 0 0 0 -88.37207,0 88.371329,88.454774 0 0 0 -42.78148,61.39254 c -37.721682,13.7173 -64.52614,49.83346 -64.52614,92.44613 l 0,18.11459 c 0,54.48661 43.82469,98.35267 98.25988,98.35267 l 485.2032,0 c 54.43519,0 98.25988,-43.86606 98.25988,-98.35267 l 0,-15.59398 0,-2.52061 c 0,-6.63643 -0.65556,-13.11369 -1.89579,-19.3749 A 139.92128,140.0534 0 0 0 670.90018,499.93939 139.92128,140.0534 0 0 0 586.35429,482.08133 166.22226,166.37921 0 0 0 508.42334,378.36575 166.22226,166.37921 0 0 0 429.23529,356.12208 Z"
         id="path4963"
         inkscape:connector-curvature="0"
         inkscape:export-xdpi="25.65"
         inkscape:export-ydpi="25.65" />
      <g
         id="g4965"
         style="opacity:1;fill:#00aad4;fill-opacity:1"
         transform="translate(1.822784,-23.962976)"
         inkscape:export-xdpi="25.65"
         inkscape:export-ydpi="25.65">
        <g
           id="g4967"
           transform="matrix(1.2184363,0,0,1.2184363,-1372.5979,-368.74511)">
          <g
             id="g4969">
            <path
               inkscape:connector-curvature="0"
               style="opacity:1;fill:#00aad4;fill-opacity:1;stroke:#00aad4;stroke-width:16.41448212;stroke-linecap:butt;stroke-linejoin:round;stroke-miterlimit:4;stroke-dasharray:none;stroke-dashoffset:0;stroke-opacity:1"
               d="m 1462.7012,472.71094 a 64.649765,64.649765 0 0 0 -64.6504,64.65039 64.649765,64.649765 0 0 0 64.6504,64.64844 64.649765,64.649765 0 0 0 64.6504,-64.64844 64.649765,64.649765 0 0 0 -64.6504,-64.65039 z m 0,30.71484 a 33.935478,33.935479 0 0 1 33.9355,33.93555 33.935478,33.935479 0 0 1 -33.9355,33.93359 33.935478,33.935479 0 0 1 -33.9356,-33.93359 33.935478,33.935479 0 0 1 33.9356,-33.93555 z"
               id="path4971"
               transform="translate(0,252.36216)" />
            <rect
               style="opacity:1;fill:#00aad4;fill-opacity:1;stroke:none;stroke-width:16.41448212;stroke-linecap:butt;stroke-linejoin:round;stroke-miterlimit:4;stroke-dasharray:none;stroke-dashoffset:0;stroke-opacity:1"
               id="rect4973"
               width="40.429195"
               height="33.576794"
               x="1442.4866"
               y="852.72321"
               ry="8.2609568"
               inkscape:transform-center-y="96.974646" />
            <rect
               ry="8.2609568"
               y="1525.5022"
               x="-810.13678"
               height="33.576794"
               width="40.429195"
               id="rect4975"
               style="opacity:1;fill:#00aad4;fill-opacity:1;stroke:none;stroke-width:16.41448212;stroke-linecap:butt;stroke-linejoin:round;stroke-miterlimit:4;stroke-dasharray:none;stroke-dashoffset:0;stroke-opacity:1"
               transform="matrix(0,-1,1,0,0,0)"
               inkscape:transform-center-x="-96.974645" />
            <rect
               transform="scale(-1,-1)"
               style="opacity:1;fill:#00aad4;fill-opacity:1;stroke:none;stroke-width:16.41448212;stroke-linecap:butt;stroke-linejoin:round;stroke-miterlimit:4;stroke-dasharray:none;stroke-dashoffset:0;stroke-opacity:1"
               id="rect4977"
               width="40.429195"
               height="33.576794"
               x="-1482.9158"
               y="-727.12115"
               ry="8.2609568"
               inkscape:transform-center-y="-96.974645" />
            <rect
               ry="8.2609568"
               y="-1399.9001"
               x="769.70758"
               height="33.576794"
               width="40.429195"
               id="rect4979"
               style="opacity:1;fill:#00aad4;fill-opacity:1;stroke:none;stroke-width:16.41448212;stroke-linecap:butt;stroke-linejoin:round;stroke-miterlimit:4;stroke-dasharray:none;stroke-dashoffset:0;stroke-opacity:1"
               transform="matrix(0,1,-1,0,0,0)"
               inkscape:transform-center-x="96.974645" />
            <rect
               inkscape:transform-center-x="68.571458"
               transform="matrix(0.70710678,0.70710678,-0.70710678,0.70710678,0,0)"
               style="opacity:1;fill:#00aad4;fill-opacity:1;stroke:none;stroke-width:16.41448212;stroke-linecap:butt;stroke-linejoin:round;stroke-miterlimit:4;stroke-dasharray:none;stroke-dashoffset:0;stroke-opacity:1"
               id="rect4981"
               width="40.429195"
               height="33.576794"
               x="1572.6306"
               y="-412.92557"
               ry="8.2609568"
               inkscape:transform-center-y="68.571393" />
            <rect
               inkscape:transform-center-y="68.571423"
               ry="8.2609568"
               y="1655.6462"
               x="455.51196"
               height="33.576794"
               width="40.429195"
               id="rect4983"
               style="opacity:1;fill:#00aad4;fill-opacity:1;stroke:none;stroke-width:16.41448212;stroke-linecap:butt;stroke-linejoin:round;stroke-miterlimit:4;stroke-dasharray:none;stroke-dashoffset:0;stroke-opacity:1"
               transform="matrix(0.70710678,-0.70710678,0.70710678,0.70710678,0,0)"
               inkscape:transform-center-x="-68.57137" />
            <rect
               inkscape:transform-center-x="-68.571478"
               transform="matrix(-0.70710678,-0.70710678,0.70710678,-0.70710678,0,0)"
               style="opacity:1;fill:#00aad4;fill-opacity:1;stroke:none;stroke-width:16.41448212;stroke-linecap:butt;stroke-linejoin:round;stroke-miterlimit:4;stroke-dasharray:none;stroke-dashoffset:0;stroke-opacity:1"
               id="rect4985"
               width="40.429195"
               height="33.576794"
               x="-1613.0599"
               y="538.52759"
               ry="8.2609568"
               inkscape:transform-center-y="-68.571326" />
            <rect
               inkscape:transform-center-y="-68.571434"
               ry="8.2609568"
               y="-1530.0443"
               x="-495.94128"
               height="33.576794"
               width="40.429195"
               id="rect4987"
               style="opacity:1;fill:#00aad4;fill-opacity:1;stroke:none;stroke-width:16.41448212;stroke-linecap:butt;stroke-linejoin:round;stroke-miterlimit:4;stroke-dasharray:none;stroke-dashoffset:0;stroke-opacity:1"
               transform="matrix(-0.70710678,0.70710678,-0.70710678,-0.70710678,0,0)"
               inkscape:transform-center-x="68.571271" />
          </g>
        </g>
      </g>
    </g>
    <rect
       style="opacity:1;fill:#00aad4;fill-opacity:1;stroke:none;stroke-width:40;stroke-linecap:butt;stroke-linejoin:round;stroke-miterlimit:4;stroke-dasharray:none;stroke-dashoffset:0;stroke-opacity:0"
       id="rect4991"
       width="610.72607"
       height="579.17725"
       x="-142.81198"
       y="1982.2467"
       ry="46.172897" />
    <text
       xml:space="preserve"
       style="font-style:normal;font-variant:normal;font-weight:normal;font-stretch:normal;font-size:56.6089859px;line-height:275.99999905%;font-family:Mshtakan;-inkscape-font-specification:Mshtakan;letter-spacing:0px;word-spacing:0px;opacity:1;fill:#ffffff;fill-opacity:1;stroke:none;stroke-width:1px;stroke-linecap:butt;stroke-linejoin:miter;stroke-opacity:1"
       x="-100.6035"
       y="2444.9707"
       id="text4993"
       sodipodi:linespacing="276%"><tspan
         sodipodi:role="line"
         id="tspan4995"
         x="-100.6035"
         y="2444.9707"
         style="font-style:normal;font-variant:normal;font-weight:500;font-stretch:normal;font-size:141.5224762px;line-height:125%;font-family:Haettenschweiler;-inkscape-font-specification:'Haettenschweiler Medium';letter-spacing:2.31855965px;fill:#ffffff">SimpleHTTP</tspan></text>
    <g
       id="g5001"
       style="opacity:1;fill:#00aad4;fill-opacity:1"
       transform="matrix(0.67274335,0,0,0.67274335,-673.89727,1969.1746)"
       inkscape:export-xdpi="25.65"
       inkscape:export-ydpi="25.65">
      <g
         id="g5003"
         transform="matrix(1.2184363,0,0,1.2184363,-1372.5979,-368.74511)">
        <g
           id="g5051"
           transform="translate(688.33866,-238.94055)">
          <path
             inkscape:export-ydpi="25.65"
             inkscape:export-xdpi="25.65"
             inkscape:connector-curvature="0"
             id="path4999"
             d="m -380.96854,2177.1969 a 87.08842,87.17065 0 0 0 -45.59931,11.654 87.08842,87.17065 0 0 0 -39.53212,49.6992 46.300173,46.343892 0 0 0 -6.25048,-4.3779 46.300173,46.343892 0 0 0 -46.30056,0 46.300173,46.343892 0 0 0 -22.4144,32.1653 c -19.76343,7.1868 -33.80702,26.1091 -33.80702,48.435 l 0,9.4908 c 0,28.547 22.96096,51.5296 51.48106,51.5296 l 254.21132,0 c 28.52009,0 51.48105,-22.9826 51.48105,-51.5296 l 0,-8.1702 0,-1.3206 c 0,-3.477 -0.34346,-6.8706 -0.99325,-10.151 a 73.308612,73.377833 0 0 0 -35.6614,-52.0748 73.308612,73.377833 0 0 0 -44.29592,-9.3563 87.08842,87.17065 0 0 0 -40.83017,-54.3395 87.08842,87.17065 0 0 0 -41.4888,-11.654 z"
             style="opacity:1;fill:none;fill-opacity:1;stroke:#ffffff;stroke-width:10.47855091;stroke-linecap:butt;stroke-linejoin:round;stroke-miterlimit:4;stroke-dasharray:none;stroke-dashoffset:0;stroke-opacity:1"
             transform="matrix(1.5664839,0,0,1.5664839,2074.093,-2795.9609)" />
          <path
             inkscape:connector-curvature="0"
             style="opacity:1;fill:#ffffff;fill-opacity:1;stroke:#ffffff;stroke-width:16.41448212;stroke-linecap:butt;stroke-linejoin:round;stroke-miterlimit:4;stroke-dasharray:none;stroke-dashoffset:0;stroke-opacity:1"
             d="m 1462.7012,725.0731 a 64.649765,64.649765 0 0 0 -64.6504,64.65039 64.649765,64.649765 0 0 0 64.6504,64.64844 64.649765,64.649765 0 0 0 64.6504,-64.64844 64.649765,64.649765 0 0 0 -64.6504,-64.65039 z m 0,30.71484 a 33.935478,33.935479 0 0 1 33.9355,33.93555 33.935478,33.935479 0 0 1 -33.9355,33.93359 33.935478,33.935479 0 0 1 -33.9356,-33.93359 33.935478,33.935479 0 0 1 33.9356,-33.93555 z"
             id="path5007" />
          <rect
             style="opacity:1;fill:#ffffff;fill-opacity:1;stroke:none;stroke-width:16.41448212;stroke-linecap:butt;stroke-linejoin:round;stroke-miterlimit:4;stroke-dasharray:none;stroke-dashoffset:0;stroke-opacity:1"
             id="rect5009"
             width="40.429195"
             height="33.576794"
             x="1442.4866"
             y="852.72321"
             ry="8.2609568"
             inkscape:transform-center-y="96.974646" />
          <rect
             ry="8.2609568"
             y="1525.5022"
             x="-810.13678"
             height="33.576794"
             width="40.429195"
             id="rect5011"
             style="opacity:1;fill:#ffffff;fill-opacity:1;stroke:none;stroke-width:16.41448212;stroke-linecap:butt;stroke-linejoin:round;stroke-miterlimit:4;stroke-dasharray:none;stroke-dashoffset:0;stroke-opacity:1"
             transform="matrix(0,-1,1,0,0,0)"
             inkscape:transform-center-x="-96.974645" />
          <rect
             transform="scale(-1,-1)"
             style="opacity:1;fill:#ffffff;fill-opacity:1;stroke:none;stroke-width:16.41448212;stroke-linecap:butt;stroke-linejoin:round;stroke-miterlimit:4;stroke-dasharray:none;stroke-dashoffset:0;stroke-opacity:1"
             id="rect5013"
             width="40.429195"
             height="33.576794"
             x="-1482.9158"
             y="-727.12115"
             ry="8.2609568"
             inkscape:transform-center-y="-96.974645" />
          <rect
             ry="8.2609568"
             y="-1399.9001"
             x="769.70758"
             height="33.576794"
             width="40.429195"
             id="rect5015"
             style="opacity:1;fill:#ffffff;fill-opacity:1;stroke:none;stroke-width:16.41448212;stroke-linecap:butt;stroke-linejoin:round;stroke-miterlimit:4;stroke-dasharray:none;stroke-dashoffset:0;stroke-opacity:1"
             transform="matrix(0,1,-1,0,0,0)"
             inkscape:transform-center-x="96.974645" />
          <rect
             inkscape:transform-center-x="68.571458"
             transform="matrix(0.70710678,0.70710678,-0.70710678,0.70710678,0,0)"
             style="opacity:1;fill:#ffffff;fill-opacity:1;stroke:none;stroke-width:16.41448212;stroke-linecap:butt;stroke-linejoin:round;stroke-miterlimit:4;stroke-dasharray:none;stroke-dashoffset:0;stroke-opacity:1"
             id="rect5017"
             width="40.429195"
             height="33.576794"
             x="1572.6306"
             y="-412.92557"
             ry="8.2609568"
             inkscape:transform-center-y="68.571393" />
          <rect
             inkscape:transform-center-y="68.571423"
             ry="8.2609568"
             y="1655.6462"
             x="455.51196"
             height="33.576794"
             width="40.429195"
             id="rect5019"
             style="opacity:1;fill:#ffffff;fill-opacity:1;stroke:none;stroke-width:16.41448212;stroke-linecap:butt;stroke-linejoin:round;stroke-miterlimit:4;stroke-dasharray:none;stroke-dashoffset:0;stroke-opacity:1"
             transform="matrix(0.70710678,-0.70710678,0.70710678,0.70710678,0,0)"
             inkscape:transform-center-x="-68.57137" />
          <rect
             inkscape:transform-center-x="-68.571478"
             transform="matrix(-0.70710678,-0.70710678,0.70710678,-0.70710678,0,0)"
             style="opacity:1;fill:#ffffff;fill-opacity:1;stroke:none;stroke-width:16.41448212;stroke-linecap:butt;stroke-linejoin:round;stroke-miterlimit:4;stroke-dasharray:none;stroke-dashoffset:0;stroke-opacity:1"
             id="rect5021"
             width="40.429195"
             height="33.576794"
             x="-1613.0599"
             y="538.52759"
             ry="8.2609568"
             inkscape:transform-center-y="-68.571326" />
          <rect
             inkscape:transform-center-y="-68.571434"
             ry="8.2609568"
             y="-1530.0443"
             x="-495.94128"
             height="33.576794"
             width="40.429195"
             id="rect5023"
             style="opacity:1;fill:#ffffff;fill-opacity:1;stroke:none;stroke-width:16.41448212;stroke-linecap:butt;stroke-linejoin:round;stroke-miterlimit:4;stroke-dasharray:none;stroke-dashoffset:0;stroke-opacity:1"
             transform="matrix(-0.70710678,0.70710678,-0.70710678,-0.70710678,0,0)"
             inkscape:transform-center-x="68.571271" />
        </g>
      </g>
    </g>
    <text
       xml:space="preserve"
       style="font-style:normal;font-weight:normal;font-size:124.96219635px;line-height:125%;font-family:sans-serif;letter-spacing:0px;word-spacing:0px;fill:#000000;fill-opacity:1;stroke:none;stroke-width:1px;stroke-linecap:butt;stroke-linejoin:miter;stroke-opacity:1"
       x="476.85513"
       y="2122.6279"
       id="text5063"
       sodipodi:linespacing="125%"><tspan
         sodipodi:role="line"
         id="tspan5065"
         x="476.85513"
         y="2122.6279">HTTP for</tspan><tspan
         sodipodi:role="line"
         x="476.85513"
         y="2278.8306"
         id="tspan5067">humans</tspan></text>
    <text
       xml:space="preserve"
       style="font-style:normal;font-weight:normal;font-size:26.7890377px;line-height:125%;font-family:sans-serif;letter-spacing:0px;word-spacing:0px;display:inline;opacity:0.77300002;fill:#eb1428;fill-opacity:1;stroke:none;stroke-width:1px;stroke-linecap:butt;stroke-linejoin:miter;stroke-opacity:1"
       x="23.237019"
       y="3084.2502"
       id="text5072"
       sodipodi:linespacing="125%"
       inkscape:export-xdpi="90"
       inkscape:export-ydpi="90"><tspan
         sodipodi:role="line"
         id="tspan5074"
         x="23.237019"
         y="3084.2502"
         style="font-style:normal;font-variant:normal;font-weight:500;font-stretch:normal;font-size:120.55066681px;font-family:Haettenschweiler;-inkscape-font-specification:'Haettenschweiler Medium';fill:#eb1428;fill-opacity:1">http://satanas.io</tspan></text>
  </g>
</svg>
